<?xml version="1.0" encoding="utf-8"?>
<!-- Generator: Adobe Illustrator 23.0.4, SVG Export Plug-In . SVG Version: 6.00 Build 0)  -->
<svg version="1.1" id="frame-top-frame" xmlns="http://www.w3.org/2000/svg" xmlns:xlink="http://www.w3.org/1999/xlink" x="0px"
	 y="0px" viewBox="0 0 279.1 355.1" style="enable-background:new 0 0 279.1 355.1;" xml:space="preserve">
<style type="text/css">
	.frame-color{fill:#000000;}
	.background-color{fill:#FFFFFF;}
	.text-color{fill:#FFFFFF;}
</style>
	
<svg xmlns="http://www.w3.org/2000/svg" xmlns:xlink="http://www.w3.org/1999/xlink" version="1.1" width="259.8" height="259.8" viewBox="0 0 2000 2000" x="9.7" y="9.6" shape-rendering="crispEdges"><defs/><rect x="0" y="0" width="2000" height="2000" fill="#ffffff"/><rect x="629" y="173" width="57" height="57" fill="#000000"/><rect x="686" y="173" width="57" height="57" fill="#000000"/><rect x="743" y="173" width="57" height="57" fill="#000000"/><rect x="857" y="173" width="57" height="57" fill="#000000"/><rect x="914" y="173" width="57" height="57" fill="#000000"/><rect x="1085" y="173" width="57" height="57" fill="#000000"/><rect x="1256" y="173" width="57" height="57" fill="#000000"/><rect x="1313" y="173" width="57" height="57" fill="#000000"/><rect x="629" y="230" width="57" height="57" fill="#000000"/><rect x="686" y="230" width="57" height="57" fill="#000000"/><rect x="743" y="230" width="57" height="57" fill="#000000"/><rect x="1028" y="230" width="57" height="57" fill="#000000"/><rect x="1142" y="230" width="57" height="57" fill="#000000"/><rect x="1313" y="230" width="57" height="57" fill="#000000"/><rect x="629" y="287" width="57" height="57" fill="#000000"/><rect x="743" y="287" width="57" height="57" fill="#000000"/><rect x="800" y="287" width="57" height="57" fill="#000000"/><rect x="914" y="287" width="57" height="57" fill="#000000"/><rect x="1256" y="287" width="57" height="57" fill="#000000"/><rect x="1313" y="287" width="57" height="57" fill="#000000"/><rect x="629" y="344" width="57" height="57" fill="#000000"/><rect x="686" y="344" width="57" height="57" fill="#000000"/><rect x="800" y="344" width="57" height="57" fill="#000000"/><rect x="971" y="344" width="57" height="57" fill="#000000"/><rect x="1028" y="344" width="57" height="57" fill="#000000"/><rect x="1085" y="344" width="57" height="57" fill="#000000"/><rect x="1199" y="344" width="57" height="57" fill="#000000"/><rect x="914" y="401" width="57" height="57" fill="#000000"/><rect x="971" y="401" width="57" height="57" fill="#000000"/><rect x="1085" y="401" width="57" height="57" fill="#000000"/><rect x="629" y="458" width="57" height="57" fill="#000000"/><rect x="800" y="458" width="57" height="57" fill="#000000"/><rect x="857" y="458" width="57" height="57" fill="#000000"/><rect x="914" y="458" width="57" height="57" fill="#000000"/><rect x="971" y="458" width="57" height="57" fill="#000000"/><rect x="1085" y="458" width="57" height="57" fill="#000000"/><rect x="1142" y="458" width="57" height="57" fill="#000000"/><rect x="1199" y="458" width="57" height="57" fill="#000000"/><rect x="1313" y="458" width="57" height="57" fill="#000000"/><rect x="629" y="515" width="57" height="57" fill="#000000"/><rect x="743" y="515" width="57" height="57" fill="#000000"/><rect x="857" y="515" width="57" height="57" fill="#000000"/><rect x="971" y="515" width="57" height="57" fill="#000000"/><rect x="1085" y="515" width="57" height="57" fill="#000000"/><rect x="1199" y="515" width="57" height="57" fill="#000000"/><rect x="1313" y="515" width="57" height="57" fill="#000000"/><rect x="686" y="572" width="57" height="57" fill="#000000"/><rect x="857" y="572" width="57" height="57" fill="#000000"/><rect x="1256" y="572" width="57" height="57" fill="#000000"/><rect x="173" y="629" width="57" height="57" fill="#000000"/><rect x="230" y="629" width="57" height="57" fill="#000000"/><rect x="401" y="629" width="57" height="57" fill="#000000"/><rect x="458" y="629" width="57" height="57" fill="#000000"/><rect x="515" y="629" width="57" height="57" fill="#000000"/><rect x="800" y="629" width="57" height="57" fill="#000000"/><rect x="914" y="629" width="57" height="57" fill="#000000"/><rect x="971" y="629" width="57" height="57" fill="#000000"/><rect x="1142" y="629" width="57" height="57" fill="#000000"/><rect x="1256" y="629" width="57" height="57" fill="#000000"/><rect x="1313" y="629" width="57" height="57" fill="#000000"/><rect x="1484" y="629" width="57" height="57" fill="#000000"/><rect x="1598" y="629" width="57" height="57" fill="#000000"/><rect x="1655" y="629" width="57" height="57" fill="#000000"/><rect x="1712" y="629" width="57" height="57" fill="#000000"/><rect x="1769" y="629" width="57" height="57" fill="#000000"/><rect x="287" y="686" width="57" height="57" fill="#000000"/><rect x="401" y="686" width="57" height="57" fill="#000000"/><rect x="686" y="686" width="57" height="57" fill="#000000"/><rect x="743" y="686" width="57" height="57" fill="#000000"/><rect x="857" y="686" width="57" height="57" fill="#000000"/><rect x="971" y="686" width="57" height="57" fill="#000000"/><rect x="1313" y="686" width="57" height="57" fill="#000000"/><rect x="1370" y="686" width="57" height="57" fill="#000000"/><rect x="1484" y="686" width="57" height="57" fill="#000000"/><rect x="1541" y="686" width="57" height="57" fill="#000000"/><rect x="1655" y="686" width="57" height="57" fill="#000000"/><rect x="1769" y="686" width="57" height="57" fill="#000000"/><rect x="173" y="743" width="57" height="57" fill="#000000"/><rect x="344" y="743" width="57" height="57" fill="#000000"/><rect x="515" y="743" width="57" height="57" fill="#000000"/><rect x="629" y="743" width="57" height="57" fill="#000000"/><rect x="800" y="743" width="57" height="57" fill="#000000"/><rect x="857" y="743" width="57" height="57" fill="#000000"/><rect x="914" y="743" width="57" height="57" fill="#000000"/><rect x="971" y="743" width="57" height="57" fill="#000000"/><rect x="1085" y="743" width="57" height="57" fill="#000000"/><rect x="1199" y="743" width="57" height="57" fill="#000000"/><rect x="1427" y="743" width="57" height="57" fill="#000000"/><rect x="1484" y="743" width="57" height="57" fill="#000000"/><rect x="1541" y="743" width="57" height="57" fill="#000000"/><rect x="1655" y="743" width="57" height="57" fill="#000000"/><rect x="1712" y="743" width="57" height="57" fill="#000000"/><rect x="173" y="800" width="57" height="57" fill="#000000"/><rect x="230" y="800" width="57" height="57" fill="#000000"/><rect x="287" y="800" width="57" height="57" fill="#000000"/><rect x="401" y="800" width="57" height="57" fill="#000000"/><rect x="458" y="800" width="57" height="57" fill="#000000"/><rect x="572" y="800" width="57" height="57" fill="#000000"/><rect x="743" y="800" width="57" height="57" fill="#000000"/><rect x="800" y="800" width="57" height="57" fill="#000000"/><rect x="914" y="800" width="57" height="57" fill="#000000"/><rect x="1142" y="800" width="57" height="57" fill="#000000"/><rect x="1256" y="800" width="57" height="57" fill="#000000"/><rect x="1313" y="800" width="57" height="57" fill="#000000"/><rect x="1370" y="800" width="57" height="57" fill="#000000"/><rect x="1598" y="800" width="57" height="57" fill="#000000"/><rect x="1655" y="800" width="57" height="57" fill="#000000"/><rect x="1712" y="800" width="57" height="57" fill="#000000"/><rect x="230" y="857" width="57" height="57" fill="#000000"/><rect x="344" y="857" width="57" height="57" fill="#000000"/><rect x="401" y="857" width="57" height="57" fill="#000000"/><rect x="458" y="857" width="57" height="57" fill="#000000"/><rect x="515" y="857" width="57" height="57" fill="#000000"/><rect x="743" y="857" width="57" height="57" fill="#000000"/><rect x="857" y="857" width="57" height="57" fill="#000000"/><rect x="914" y="857" width="57" height="57" fill="#000000"/><rect x="1142" y="857" width="57" height="57" fill="#000000"/><rect x="1199" y="857" width="57" height="57" fill="#000000"/><rect x="1256" y="857" width="57" height="57" fill="#000000"/><rect x="1370" y="857" width="57" height="57" fill="#000000"/><rect x="1541" y="857" width="57" height="57" fill="#000000"/><rect x="1712" y="857" width="57" height="57" fill="#000000"/><rect x="173" y="914" width="57" height="57" fill="#000000"/><rect x="230" y="914" width="57" height="57" fill="#000000"/><rect x="287" y="914" width="57" height="57" fill="#000000"/><rect x="344" y="914" width="57" height="57" fill="#000000"/><rect x="401" y="914" width="57" height="57" fill="#000000"/><rect x="458" y="914" width="57" height="57" fill="#000000"/><rect x="629" y="914" width="57" height="57" fill="#000000"/><rect x="686" y="914" width="57" height="57" fill="#000000"/><rect x="914" y="914" width="57" height="57" fill="#000000"/><rect x="971" y="914" width="57" height="57" fill="#000000"/><rect x="1028" y="914" width="57" height="57" fill="#000000"/><rect x="1085" y="914" width="57" height="57" fill="#000000"/><rect x="1199" y="914" width="57" height="57" fill="#000000"/><rect x="1256" y="914" width="57" height="57" fill="#000000"/><rect x="1370" y="914" width="57" height="57" fill="#000000"/><rect x="1484" y="914" width="57" height="57" fill="#000000"/><rect x="1655" y="914" width="57" height="57" fill="#000000"/><rect x="230" y="971" width="57" height="57" fill="#000000"/><rect x="287" y="971" width="57" height="57" fill="#000000"/><rect x="515" y="971" width="57" height="57" fill="#000000"/><rect x="572" y="971" width="57" height="57" fill="#000000"/><rect x="629" y="971" width="57" height="57" fill="#000000"/><rect x="743" y="971" width="57" height="57" fill="#000000"/><rect x="1085" y="971" width="57" height="57" fill="#000000"/><rect x="1199" y="971" width="57" height="57" fill="#000000"/><rect x="1313" y="971" width="57" height="57" fill="#000000"/><rect x="1370" y="971" width="57" height="57" fill="#000000"/><rect x="1427" y="971" width="57" height="57" fill="#000000"/><rect x="1484" y="971" width="57" height="57" fill="#000000"/><rect x="1541" y="971" width="57" height="57" fill="#000000"/><rect x="1655" y="971" width="57" height="57" fill="#000000"/><rect x="1712" y="971" width="57" height="57" fill="#000000"/><rect x="344" y="1028" width="57" height="57" fill="#000000"/><rect x="458" y="1028" width="57" height="57" fill="#000000"/><rect x="629" y="1028" width="57" height="57" fill="#000000"/><rect x="743" y="1028" width="57" height="57" fill="#000000"/><rect x="857" y="1028" width="57" height="57" fill="#000000"/><rect x="971" y="1028" width="57" height="57" fill="#000000"/><rect x="1085" y="1028" width="57" height="57" fill="#000000"/><rect x="1256" y="1028" width="57" height="57" fill="#000000"/><rect x="1313" y="1028" width="57" height="57" fill="#000000"/><rect x="1370" y="1028" width="57" height="57" fill="#000000"/><rect x="1598" y="1028" width="57" height="57" fill="#000000"/><rect x="1655" y="1028" width="57" height="57" fill="#000000"/><rect x="173" y="1085" width="57" height="57" fill="#000000"/><rect x="230" y="1085" width="57" height="57" fill="#000000"/><rect x="344" y="1085" width="57" height="57" fill="#000000"/><rect x="401" y="1085" width="57" height="57" fill="#000000"/><rect x="458" y="1085" width="57" height="57" fill="#000000"/><rect x="515" y="1085" width="57" height="57" fill="#000000"/><rect x="572" y="1085" width="57" height="57" fill="#000000"/><rect x="800" y="1085" width="57" height="57" fill="#000000"/><rect x="914" y="1085" width="57" height="57" fill="#000000"/><rect x="971" y="1085" width="57" height="57" fill="#000000"/><rect x="1085" y="1085" width="57" height="57" fill="#000000"/><rect x="1199" y="1085" width="57" height="57" fill="#000000"/><rect x="1256" y="1085" width="57" height="57" fill="#000000"/><rect x="1313" y="1085" width="57" height="57" fill="#000000"/><rect x="1370" y="1085" width="57" height="57" fill="#000000"/><rect x="1427" y="1085" width="57" height="57" fill="#000000"/><rect x="1598" y="1085" width="57" height="57" fill="#000000"/><rect x="1712" y="1085" width="57" height="57" fill="#000000"/><rect x="173" y="1142" width="57" height="57" fill="#000000"/><rect x="230" y="1142" width="57" height="57" fill="#000000"/><rect x="572" y="1142" width="57" height="57" fill="#000000"/><rect x="629" y="1142" width="57" height="57" fill="#000000"/><rect x="686" y="1142" width="57" height="57" fill="#000000"/><rect x="857" y="1142" width="57" height="57" fill="#000000"/><rect x="1256" y="1142" width="57" height="57" fill="#000000"/><rect x="1313" y="1142" width="57" height="57" fill="#000000"/><rect x="1427" y="1142" width="57" height="57" fill="#000000"/><rect x="1484" y="1142" width="57" height="57" fill="#000000"/><rect x="1655" y="1142" width="57" height="57" fill="#000000"/><rect x="401" y="1199" width="57" height="57" fill="#000000"/><rect x="515" y="1199" width="57" height="57" fill="#000000"/><rect x="800" y="1199" width="57" height="57" fill="#000000"/><rect x="857" y="1199" width="57" height="57" fill="#000000"/><rect x="914" y="1199" width="57" height="57" fill="#000000"/><rect x="971" y="1199" width="57" height="57" fill="#000000"/><rect x="1199" y="1199" width="57" height="57" fill="#000000"/><rect x="1256" y="1199" width="57" height="57" fill="#000000"/><rect x="1427" y="1199" width="57" height="57" fill="#000000"/><rect x="1484" y="1199" width="57" height="57" fill="#000000"/><rect x="1541" y="1199" width="57" height="57" fill="#000000"/><rect x="1655" y="1199" width="57" height="57" fill="#000000"/><rect x="1769" y="1199" width="57" height="57" fill="#000000"/><rect x="287" y="1256" width="57" height="57" fill="#000000"/><rect x="401" y="1256" width="57" height="57" fill="#000000"/><rect x="572" y="1256" width="57" height="57" fill="#000000"/><rect x="686" y="1256" width="57" height="57" fill="#000000"/><rect x="800" y="1256" width="57" height="57" fill="#000000"/><rect x="914" y="1256" width="57" height="57" fill="#000000"/><rect x="1142" y="1256" width="57" height="57" fill="#000000"/><rect x="1199" y="1256" width="57" height="57" fill="#000000"/><rect x="1256" y="1256" width="57" height="57" fill="#000000"/><rect x="1313" y="1256" width="57" height="57" fill="#000000"/><rect x="1370" y="1256" width="57" height="57" fill="#000000"/><rect x="1712" y="1256" width="57" height="57" fill="#000000"/><rect x="173" y="1313" width="57" height="57" fill="#000000"/><rect x="230" y="1313" width="57" height="57" fill="#000000"/><rect x="287" y="1313" width="57" height="57" fill="#000000"/><rect x="344" y="1313" width="57" height="57" fill="#000000"/><rect x="515" y="1313" width="57" height="57" fill="#000000"/><rect x="572" y="1313" width="57" height="57" fill="#000000"/><rect x="857" y="1313" width="57" height="57" fill="#000000"/><rect x="914" y="1313" width="57" height="57" fill="#000000"/><rect x="1085" y="1313" width="57" height="57" fill="#000000"/><rect x="1142" y="1313" width="57" height="57" fill="#000000"/><rect x="1199" y="1313" width="57" height="57" fill="#000000"/><rect x="1256" y="1313" width="57" height="57" fill="#000000"/><rect x="1313" y="1313" width="57" height="57" fill="#000000"/><rect x="1370" y="1313" width="57" height="57" fill="#000000"/><rect x="1427" y="1313" width="57" height="57" fill="#000000"/><rect x="1484" y="1313" width="57" height="57" fill="#000000"/><rect x="1541" y="1313" width="57" height="57" fill="#000000"/><rect x="1655" y="1313" width="57" height="57" fill="#000000"/><rect x="629" y="1370" width="57" height="57" fill="#000000"/><rect x="743" y="1370" width="57" height="57" fill="#000000"/><rect x="914" y="1370" width="57" height="57" fill="#000000"/><rect x="971" y="1370" width="57" height="57" fill="#000000"/><rect x="1199" y="1370" width="57" height="57" fill="#000000"/><rect x="1256" y="1370" width="57" height="57" fill="#000000"/><rect x="1313" y="1370" width="57" height="57" fill="#000000"/><rect x="1541" y="1370" width="57" height="57" fill="#000000"/><rect x="1655" y="1370" width="57" height="57" fill="#000000"/><rect x="1028" y="1427" width="57" height="57" fill="#000000"/><rect x="1085" y="1427" width="57" height="57" fill="#000000"/><rect x="1199" y="1427" width="57" height="57" fill="#000000"/><rect x="1313" y="1427" width="57" height="57" fill="#000000"/><rect x="1427" y="1427" width="57" height="57" fill="#000000"/><rect x="1541" y="1427" width="57" height="57" fill="#000000"/><rect x="1598" y="1427" width="57" height="57" fill="#000000"/><rect x="1655" y="1427" width="57" height="57" fill="#000000"/><rect x="1769" y="1427" width="57" height="57" fill="#000000"/><rect x="629" y="1484" width="57" height="57" fill="#000000"/><rect x="743" y="1484" width="57" height="57" fill="#000000"/><rect x="857" y="1484" width="57" height="57" fill="#000000"/><rect x="971" y="1484" width="57" height="57" fill="#000000"/><rect x="1142" y="1484" width="57" height="57" fill="#000000"/><rect x="1199" y="1484" width="57" height="57" fill="#000000"/><rect x="1256" y="1484" width="57" height="57" fill="#000000"/><rect x="1313" y="1484" width="57" height="57" fill="#000000"/><rect x="1541" y="1484" width="57" height="57" fill="#000000"/><rect x="1598" y="1484" width="57" height="57" fill="#000000"/><rect x="1712" y="1484" width="57" height="57" fill="#000000"/><rect x="629" y="1541" width="57" height="57" fill="#000000"/><rect x="800" y="1541" width="57" height="57" fill="#000000"/><rect x="914" y="1541" width="57" height="57" fill="#000000"/><rect x="971" y="1541" width="57" height="57" fill="#000000"/><rect x="1256" y="1541" width="57" height="57" fill="#000000"/><rect x="1313" y="1541" width="57" height="57" fill="#000000"/><rect x="1370" y="1541" width="57" height="57" fill="#000000"/><rect x="1427" y="1541" width="57" height="57" fill="#000000"/><rect x="1484" y="1541" width="57" height="57" fill="#000000"/><rect x="1541" y="1541" width="57" height="57" fill="#000000"/><rect x="1598" y="1541" width="57" height="57" fill="#000000"/><rect x="1655" y="1541" width="57" height="57" fill="#000000"/><rect x="1769" y="1541" width="57" height="57" fill="#000000"/><rect x="686" y="1598" width="57" height="57" fill="#000000"/><rect x="857" y="1598" width="57" height="57" fill="#000000"/><rect x="1085" y="1598" width="57" height="57" fill="#000000"/><rect x="1199" y="1598" width="57" height="57" fill="#000000"/><rect x="1370" y="1598" width="57" height="57" fill="#000000"/><rect x="1484" y="1598" width="57" height="57" fill="#000000"/><rect x="1541" y="1598" width="57" height="57" fill="#000000"/><rect x="1655" y="1598" width="57" height="57" fill="#000000"/><rect x="1712" y="1598" width="57" height="57" fill="#000000"/><rect x="743" y="1655" width="57" height="57" fill="#000000"/><rect x="800" y="1655" width="57" height="57" fill="#000000"/><rect x="857" y="1655" width="57" height="57" fill="#000000"/><rect x="914" y="1655" width="57" height="57" fill="#000000"/><rect x="971" y="1655" width="57" height="57" fill="#000000"/><rect x="1028" y="1655" width="57" height="57" fill="#000000"/><rect x="1085" y="1655" width="57" height="57" fill="#000000"/><rect x="1199" y="1655" width="57" height="57" fill="#000000"/><rect x="1256" y="1655" width="57" height="57" fill="#000000"/><rect x="1484" y="1655" width="57" height="57" fill="#000000"/><rect x="1655" y="1655" width="57" height="57" fill="#000000"/><rect x="1712" y="1655" width="57" height="57" fill="#000000"/><rect x="1769" y="1655" width="57" height="57" fill="#000000"/><rect x="629" y="1712" width="57" height="57" fill="#000000"/><rect x="800" y="1712" width="57" height="57" fill="#000000"/><rect x="914" y="1712" width="57" height="57" fill="#000000"/><rect x="1256" y="1712" width="57" height="57" fill="#000000"/><rect x="1427" y="1712" width="57" height="57" fill="#000000"/><rect x="1484" y="1712" width="57" height="57" fill="#000000"/><rect x="1541" y="1712" width="57" height="57" fill="#000000"/><rect x="1655" y="1712" width="57" height="57" fill="#000000"/><rect x="629" y="1769" width="57" height="57" fill="#000000"/><rect x="686" y="1769" width="57" height="57" fill="#000000"/><rect x="857" y="1769" width="57" height="57" fill="#000000"/><rect x="914" y="1769" width="57" height="57" fill="#000000"/><rect x="1199" y="1769" width="57" height="57" fill="#000000"/><rect x="1256" y="1769" width="57" height="57" fill="#000000"/><rect x="1427" y="1769" width="57" height="57" fill="#000000"/><rect x="1484" y="1769" width="57" height="57" fill="#000000"/><rect x="1541" y="1769" width="57" height="57" fill="#000000"/><rect x="1598" y="1769" width="57" height="57" fill="#000000"/><rect x="1655" y="1769" width="57" height="57" fill="#000000"/><rect x="1712" y="1769" width="57" height="57" fill="#000000"/><svg version="1.1" id="Ebene_1" x="173" y="173" width="399" height="399" viewBox="0 0 699.988 699.986" enable-background="new 0 0 699.988 699.986" xml:space="preserve" shape-rendering="auto">
<path fill="#000000" d="M600.99,0h-100h-99.997h-0.001h-99.997h-99.998h-99.998H1v99.998v99.998v99.998v99.999v99.997v99.998v99.998  h99.999h99.998h99.998h99.997h0.001h99.997h100h99.998v-99.998V499.99v-99.997v-99.999v-99.998V99.998V0H600.99z M600.99,199.996  v99.998v99.999v99.997v99.998h-100h-99.997h-0.001h-99.997h-99.998h-99.998V499.99v-99.997v-99.999v-99.998V99.998h99.998h99.998  h99.997h0.001h99.997h100V199.996z"/>
</svg>
<svg version="1.0" id="Ebene_1" x="173" y="173" width="399" height="399" viewBox="0 0 699.988 699.988" enable-background="new 0 0 699.988 699.988" xml:space="preserve" shape-rendering="auto">
<polygon fill="#000000" points="399.994,199.997 399.992,199.997 299.996,199.997 199.998,199.997 199.998,299.994 199.998,399.994   199.998,499.991 299.996,499.991 399.992,499.991 399.994,499.991 499.99,499.991 499.99,399.994 499.99,299.994 499.99,199.997 "/>
</svg>
<svg version="1.1" id="Ebene_1" x="1427" y="173" width="399" height="399" viewBox="0 0 699.988 699.986" enable-background="new 0 0 699.988 699.986" xml:space="preserve" shape-rendering="auto">
<path fill="#000000" d="M600.99,0h-100h-99.997h-0.001h-99.997h-99.998h-99.998H1v99.998v99.998v99.998v99.999v99.997v99.998v99.998  h99.999h99.998h99.998h99.997h0.001h99.997h100h99.998v-99.998V499.99v-99.997v-99.999v-99.998V99.998V0H600.99z M600.99,199.996  v99.998v99.999v99.997v99.998h-100h-99.997h-0.001h-99.997h-99.998h-99.998V499.99v-99.997v-99.999v-99.998V99.998h99.998h99.998  h99.997h0.001h99.997h100V199.996z"/>
</svg>
<svg version="1.0" id="Ebene_1" x="1427" y="173" width="399" height="399" viewBox="0 0 699.988 699.988" enable-background="new 0 0 699.988 699.988" xml:space="preserve" shape-rendering="auto">
<polygon fill="#000000" points="399.994,199.997 399.992,199.997 299.996,199.997 199.998,199.997 199.998,299.994 199.998,399.994   199.998,499.991 299.996,499.991 399.992,499.991 399.994,499.991 499.99,499.991 499.99,399.994 499.99,299.994 499.99,199.997 "/>
</svg>
<svg version="1.1" id="Ebene_1" x="173" y="1427" width="399" height="399" viewBox="0 0 699.988 699.986" enable-background="new 0 0 699.988 699.986" xml:space="preserve" shape-rendering="auto">
<path fill="#000000" d="M600.99,0h-100h-99.997h-0.001h-99.997h-99.998h-99.998H1v99.998v99.998v99.998v99.999v99.997v99.998v99.998  h99.999h99.998h99.998h99.997h0.001h99.997h100h99.998v-99.998V499.99v-99.997v-99.999v-99.998V99.998V0H600.99z M600.99,199.996  v99.998v99.999v99.997v99.998h-100h-99.997h-0.001h-99.997h-99.998h-99.998V499.99v-99.997v-99.999v-99.998V99.998h99.998h99.998  h99.997h0.001h99.997h100V199.996z"/>
</svg>
<svg version="1.0" id="Ebene_1" x="173" y="1427" width="399" height="399" viewBox="0 0 699.988 699.988" enable-background="new 0 0 699.988 699.988" xml:space="preserve" shape-rendering="auto">
<polygon fill="#000000" points="399.994,199.997 399.992,199.997 299.996,199.997 199.998,199.997 199.998,299.994 199.998,399.994   199.998,499.991 299.996,499.991 399.992,499.991 399.994,499.991 499.99,499.991 499.99,399.994 499.99,299.994 499.99,199.997 "/>
</svg>
</svg>

	<path id="FrameBody" class="frame-color" d="M265.4,0H13.7C6.1,0,0,6.1,0,13.7v251.6c0,7.6,6.2,13.7,13.7,13.7h251.6c7.6,0,13.7-6.1,13.8-13.6V13.7
	C279.1,6.1,272.9,0,265.4,0z M268.5,261.1c0,4.1-3.3,7.4-7.4,7.4H17.9c-4.1,0-7.4-3.3-7.4-7.4V17.9c0-4.1,3.3-7.4,7.4-7.4h243.2
	c4.1,0,7.4,3.3,7.4,7.4V261.1z"/>
	
	<path id="CallToAction" class="frame-color" d="M19.4,347.5c6.5-0.1,9.9-2.4,10-7c0-3.8-2.1-6-6.6-6.8c-2-0.3-4.3-0.6-6.7-0.9c-4.3-0.7-7.6-2.3-9.9-4.8
	c-2.3-2.6-3.5-5.7-3.5-9.3c0-4.4,1.5-8,4.4-10.7c2.8-2.7,6.9-4,12.1-4.1c6.3,0.1,11.7,1.9,16.4,5.2l-4.3,6.3
	c-3.8-2.5-7.9-3.8-12.5-3.9c-2.4,0-4.3,0.6-5.9,1.8c-1.6,1.2-2.5,3-2.5,5.5c0,1.5,0.6,2.8,1.7,3.9c1.1,1.2,2.9,2,5.4,2.5
	c1.4,0.2,3.3,0.5,5.7,0.8c4.7,0.6,8.2,2.3,10.5,5.1c2.2,2.7,3.4,5.8,3.4,9.4c-0.3,9.6-6.2,14.5-17.7,14.7c-7.5,0-13.9-2.3-19.3-6.9
	l5-5.7C9.1,345.8,13.9,347.4,19.4,347.5z M79.1,340.6c-1.1,4.7-3.2,8.3-6.3,10.8c-3.2,2.5-7,3.7-11.4,3.7c-4-0.1-7.3-1.1-9.9-2.9
	c-2.7-1.8-4.7-3.8-5.9-6.2c-0.4-0.8-0.7-1.5-1-2.2s-0.5-1.6-0.7-2.7c-0.3-2-0.5-5.9-0.5-11.7c0-5.9,0.2-9.8,0.5-11.8
	c0.4-2,0.9-3.6,1.7-4.8c1.2-2.3,3.2-4.4,5.9-6.2c2.7-1.8,6-2.8,9.9-2.8c4.9,0,8.8,1.5,11.9,4.3c3.1,2.9,5,6.4,5.8,10.6h-8
	c-0.6-2-1.8-3.8-3.4-5.2c-1.7-1.4-3.8-2.1-6.2-2.1c-1.8,0-3.3,0.4-4.6,1.1s-2.4,1.6-3.2,2.6c-1,1.1-1.6,2.5-2,4.2
	c-0.4,1.8-0.6,5.2-0.6,10.1c0,5,0.2,8.3,0.6,10.1c0.3,1.8,1,3.2,2,4.3c0.8,1,1.9,1.9,3.2,2.5c1.3,0.8,2.8,1.1,4.6,1.1
	c4.3,0,7.5-2.3,9.6-6.9h8V340.6z M110.4,343.4H91.3l-3.9,11.3h-8.1l18.3-50.4h6.4l18.3,50.4h-8.1L110.4,343.4z M108.2,336.7l-7.3-22
	h-0.1l-7.3,22H108.2z M127.8,304.3h7.2l22.8,35.8h0.1v-35.8h7.6v50.4h-7.2l-22.8-35.8h-0.1v35.8h-7.6
	C127.8,354.7,127.8,304.3,127.8,304.3z M193.2,304.3h7.2l14.5,32.9l14.2-32.9h7.2v50.4h-7.6v-31.4h-0.2l-10.6,24.2h-6.4l-10.6-24.2
	h-0.1v31.4h-7.6L193.2,304.3L193.2,304.3z M246.9,304.3h32.2v7.2h-24.6v14.4h21v6.8h-21v14.8h24.6v7.2h-32.2L246.9,304.3
	L246.9,304.3z"/>
</svg>
